<svg xmlns="http://www.w3.org/2000/svg" width="216" height="216" viewBox="0 0 216 216">
    <defs>
        <clipPath id="0r4d230xja">
            <path data-name="Rectangle 17971" transform="translate(607 542)" style="fill:#fff" d="M0 0h216v216H0z"/>
        </clipPath>
        <clipPath id="dzs0uizvgb">
            <path data-name="Rectangle 17970" style="fill:none" d="M0 0h216v210.82H0z"/>
        </clipPath>
        <clipPath id="cwnk1nubnc">
            <path data-name="Path 72115" d="M69.627 246.954c-3.3 1.066-3.08 4.369-4.4 7.665a19.179 19.179 0 0 1-4.613 6.153s8.557-2.822 10.1-5.024 4.181-8.793 4.181-8.793a5.535 5.535 0 0 0-2.442-.474 9.189 9.189 0 0 0-2.832.474" transform="translate(-60.617 -246.48)" style="fill:none"/>
        </clipPath>
        <clipPath id="2ravdxaekd">
            <path data-name="Rectangle 17967" style="fill:none" d="M0 0h14.284v14.291H0z"/>
        </clipPath>
    </defs>
    <g data-name="Mask Group 9651" transform="translate(-607 -542)" style="clip-path:url(#0r4d230xja)">
        <g data-name="Group 40130">
            <g data-name="Group 40139" style="clip-path:url(#dzs0uizvgb)" transform="translate(607 545)">
                <g data-name="Group 40131">
                    <g data-name="Group 40130" style="clip-path:url(#dzs0uizvgb)">
                        <path data-name="Path 72089" d="M125.714 214.372V118.7a3.826 3.826 0 0 1 3.825-3.826h41.153a3.826 3.826 0 0 1 3.825 3.826v95.671a3.825 3.825 0 0 1-3.825 3.825h-41.153a3.825 3.825 0 0 1-3.825-3.825" transform="translate(-65.442 -59.8)" style="fill:#e6e6e6"/>
                        <path data-name="Path 72090" d="M129.57 323.718h41.16a3.819 3.819 0 0 0 3.819-3.819v-2.334h-48.777v2.327a3.819 3.819 0 0 0 3.8 3.825" transform="translate(-65.472 -165.313)" style="fill:#fff"/>
                        <path data-name="Rectangle 17961" transform="translate(75.002 96.194)" style="fill:#fff" d="M0 0h31.217v50.999H0z"/>
                        <path data-name="Path 72091" d="M174.57 120.33v-1.672a3.818 3.818 0 0 0-3.812-3.825h-41.167a3.818 3.818 0 0 0-3.818 3.818v1.679z" transform="translate(-65.473 -59.777)" style="fill:#fff"/>
                        <path data-name="Path 72092" d="m171.893 136.65-9.689.1a.115.115 0 0 1-.116-.114l-.076-10.552a.191.191 0 0 1 .192-.192c3.224-.071 6.448-.066 9.672-.049a.24.24 0 0 1 .242.239c-.01 3.091-.141 7.445-.224 10.569m-.034-.034c-.1-3.088-.2-7.5-.224-10.533l.241.241c-3.224.017-6.448.022-9.672-.049l.192-.192-.076 10.549-.116-.116z" transform="translate(-84.338 -65.504)" style="fill:#174159"/>
                        <path data-name="Path 72093" d="M166.986 145a2.749 2.749 0 0 0 5.5 0 2.749 2.749 0 0 0-5.5 0m-.048 0a2.958 2.958 0 0 1 5.069-2.188 3.08 3.08 0 0 1-.058 4.318 2.958 2.958 0 0 1-5.011-2.13" transform="translate(-86.901 -73.872)" style="fill:#174159"/>
                        <path data-name="Path 72094" d="M174.54 154.321c.03 7.4.508 14.868-.025 22.23a108.383 108.383 0 0 1-.19-11.126c.091-3.652.009-7.6.216-11.1" transform="translate(-90.72 -80.334)" style="fill:#174159"/>
                        <path data-name="Path 72095" d="m211.577 174.2-9.027.092a.107.107 0 0 1-.108-.106l-.083-11.437a.191.191 0 0 1 .192-.192c3-.063 6.006-.07 9.01-.052a.244.244 0 0 1 .244.244c0 3.345-.141 8.069-.227 11.452m-.034-.034c-.1-3.348-.215-8.127-.227-11.418l.244.244c-3 .018-6.006.011-9.01-.052l.192-.192-.083 11.435-.108-.108z" transform="translate(-105.34 -84.592)" style="fill:#174159"/>
                        <path data-name="Path 72096" d="m162.759 120.13-8.811.119a.135.135 0 0 1-.137-.137l-.055-5.5a.19.19 0 0 1 .183-.191 150.49 150.49 0 0 1 4.406-.062c1.291.009 3.123.01 4.4.045a.207.207 0 0 1 .21.209c-.023 1.885-.12 3.752-.192 5.515m-.034-.034c-.072-1.9-.169-3.7-.192-5.481l.209.21a237.03 237.03 0 0 1-4.4.044c-1.466 0-2.931-.014-4.4-.062l.192-.192-.056 5.5-.136-.136z" transform="translate(-80.04 -59.532)" style="fill:#174159"/>
                        <path data-name="Path 72097" d="M176.83 256.188h4.675l5.477-12.661h-3.951l4.648-12.424-10.689 15.678h4.181z" transform="translate(-92.051 -120.304)" style="fill:#7f5eff"/>
                        <path data-name="Path 72098" d="M66.3 48.839h7.17V27.8a4.181 4.181 0 1 1 0-6.8V0H66.3a3.819 3.819 0 0 0-3.819 3.819v41.2a3.819 3.819 0 0 0 3.819 3.82z" transform="translate(-32.523)" style="fill:#fff"/>
                        <path data-name="Path 72099" d="M209.165 48.877h-95.671a3.825 3.825 0 0 1-3.825-3.825V3.9a3.825 3.825 0 0 1 3.825-3.827h95.671a3.825 3.825 0 0 1 3.826 3.827v41.152a3.825 3.825 0 0 1-3.825 3.825" transform="translate(-57.09 -.038)" style="fill:#174159"/>
                        <path data-name="Path 72100" d="M209.267 48.971h-93.288a3.825 3.825 0 0 1-3.825-3.825V6.18a3.825 3.825 0 0 1 3.825-3.825h93.288a3.825 3.825 0 0 1 3.825 3.825v38.966a3.825 3.825 0 0 1-3.825 3.825" transform="translate(-58.383 -1.226)" style="fill:#e6e6e6"/>
                        <path data-name="Path 72101" d="M232.716 48.645h-68.865V5.116h68.865a4.118 4.118 0 0 1 4.118 4.118v35.293a4.118 4.118 0 0 1-4.118 4.118" transform="translate(-85.295 -2.663)" style="fill:#fff"/>
                        <path data-name="Path 72102" d="M119.865 51.19a2.857 2.857 0 1 1 2.857-2.857 2.857 2.857 0 0 1-2.857 2.857" transform="translate(-60.91 -23.673)" style="fill:#2e546a"/>
                        <path data-name="Rectangle 17962" transform="translate(74.347 2.453)" style="fill:#fff" d="M0 0h1.979v8.355H0z"/>
                        <path data-name="Rectangle 17963" transform="translate(74.347 15.204)" style="fill:#fff" d="M0 0h1.979v8.355H0z"/>
                        <path data-name="Path 72103" d="M268.945 170.194h19.511v1.066a1.045 1.045 0 0 0 2.09 0v-16.723a1.045 1.045 0 0 0-2.09 0v1.5h-19.511a2.536 2.536 0 0 0-2.53 2.536v9.058a2.536 2.536 0 0 0 2.508 2.564h.021m19.511-1.393h-13.238v-11.359h13.239zm-20.645-10.23a1.143 1.143 0 0 1 1.136-1.143h4.94v11.358h-4.94a1.136 1.136 0 0 1-1.136-1.136z" transform="translate(-138.687 -79.903)" style="fill:#fff"/>
                        <path data-name="Path 72104" d="M289.11 217.081h8.173V199.71H283v11.762z" transform="translate(-147.319 -103.962)" style="fill:#e6e6e6"/>
                        <path data-name="Path 72105" d="M297.054 214.713h-5.184a1.749 1.749 0 0 1-1.749-1.749v-6.215A1.749 1.749 0 0 1 291.87 205h5.184a1.749 1.749 0 0 1 1.749 1.749v6.215a1.749 1.749 0 0 1-1.749 1.749" transform="translate(-151.027 -106.716)" style="fill:#fff"/>
                        <rect data-name="Rectangle 17964" width="8.682" height="9.713" rx="3.648" transform="translate(139.094 98.284)" style="stroke-linecap:round;stroke-linejoin:round;stroke:#174159;fill:none"/>
                        <path data-name="Line 3128" transform="translate(143.519 98.277)" style="stroke-linecap:round;stroke-linejoin:round;stroke:#174159;fill:none" d="M0 9.546V0"/>
                        <path data-name="Line 3129" transform="translate(139.185 102.96)" style="stroke-linecap:round;stroke-linejoin:round;stroke:#174159;fill:none" d="M8.591 0H0"/>
                        <path data-name="Path 72106" d="M299.072 205.077v2.167a2.174 2.174 0 0 1-2.174 2.174h-.076a2.181 2.181 0 0 1-2.181-2.174V205" transform="translate(-153.38 -106.716)" style="stroke-linecap:round;stroke-linejoin:round;stroke:#174159;fill:none"/>
                        <path data-name="Path 72107" d="M294.641 219.5v-2.167a2.181 2.181 0 0 1 2.181-2.174h.077a2.174 2.174 0 0 1 2.174 2.174v2.244" transform="translate(-153.38 -112.004)" style="stroke-linecap:round;stroke-linejoin:round;stroke:#174159;fill:none"/>
                        <path data-name="Path 72108" d="M28.191 4.7a.537.537 0 0 1 .53.523l.515 29.44h-2.09l.509-29.44a.536.536 0 0 1 .536-.523" transform="translate(-14.131 -2.444)" style="fill:#fff"/>
                        <path data-name="Path 72109" d="M15.068 159.408h13.65l-2.9-35.453h-.007V87.421h-7.844v36.533h-.007z" transform="translate(-7.844 -45.508)" style="fill:#174159"/>
                        <path data-name="Rectangle 17965" transform="translate(7.14 113.934)" style="fill:#2e546a" d="M0 0h13.818v10.215H0z"/>
                        <path data-name="Path 72110" d="M23.276 62.1h3.749l1.951 12.083h-7.644z" transform="translate(-11.105 -32.329)" style="fill:#2e546a"/>
                        <path data-name="Path 72111" d="M401.264 116.243c2.09 2.09.523-22.82 1.742-34.318a259.749 259.749 0 0 1 7.665-38.847c3.136-10.8 1.568-14.11 1.568-14.11l.481-.39c.271.23.48.39.48.39s-1.568 3.31 1.568 14.11a259.817 259.817 0 0 1 7.665 38.847c1.219 11.5-.349 36.408 1.742 34.318 0 0 1.568-35.537-1.045-50.518s-6.1-31.008-7.316-39.718a140.214 140.214 0 0 1-.9-19.079 1.282 1.282 0 0 0-1.261-1.3h-1.847a1.282 1.282 0 0 0-1.282 1.282v.021a141.3 141.3 0 0 1-.9 19.079c-1.22 8.71-4.7 24.736-7.317 39.718s-1.045 50.518-1.045 50.518" transform="translate(-208.641 -2.928)" style="fill:#174159"/>
                        <path data-name="Path 72112" d="M60.617 260.77a19.175 19.175 0 0 0 4.613-6.153c1.317-3.3 1.1-6.6 4.4-7.665s5.275 0 5.275 0-2.634 6.592-4.181 8.794-10.1 5.024-10.1 5.024" transform="translate(-31.555 -128.308)" style="fill:#ff9a6c"/>
                    </g>
                </g>
                <g data-name="Group 40136">
                    <g data-name="Group 40135" style="clip-path:url(#cwnk1nubnc)" transform="translate(29.062 118.171)">
                        <path data-name="Path 72113" d="M60.617 260.77a19.175 19.175 0 0 0 4.613-6.153c1.317-3.3 1.1-6.6 4.4-7.665s5.275 0 5.275 0-2.634 6.592-4.181 8.794-10.1 5.024-10.1 5.024" transform="translate(-60.617 -246.479)" style="fill:#ff9a6c"/>
                        <g data-name="Group 40134" style="opacity:.5;isolation:isolate">
                            <g data-name="Group 40133">
                                <g data-name="Group 40132" style="clip-path:url(#2ravdxaekd)">
                                    <path data-name="Path 72114" d="M60.617 260.77a19.175 19.175 0 0 0 4.613-6.153c1.317-3.3 1.1-6.6 4.4-7.665s5.275 0 5.275 0-2.634 6.592-4.181 8.794-10.1 5.024-10.1 5.024" transform="translate(-60.617 -246.479)" style="fill:#ff9a6c"/>
                                </g>
                            </g>
                        </g>
                    </g>
                </g>
                <g data-name="Group 40138">
                    <g data-name="Group 40137" style="clip-path:url(#dzs0uizvgb)">
                        <path data-name="Path 72116" d="M104.084 254.46c-3.955 1.1-6.592 2.857-7.915 6.151S93.311 273.8 91.988 277.1 77.034 288.945 72.2 290.949s-9.013 3.735-12.312 9.67c-.968 1.745-2.364 4.823-3.855 8.3-.038.1-.082.2-.125.3-11.569-.029-23.018-.062-34.265-.105a.679.679 0 0 1 .038-.086c3.514-7.062 6.971-14.311 7.868-17.2 1.98-6.377 5.71-22.414 7.033-29.893s2.862-28.8 3.74-31 7.033-5.5 7.033-5.5 4.181-6.813 6.813-10.107a7.04 7.04 0 0 1 6.381-2.651s4.464-7.484 5.974-10.557 5.686-11.871 7.666-12.748a3.508 3.508 0 0 1 4.4 4.4c-.877 3.3-5.5 10.773-9.9 22.207a95.2 95.2 0 0 0-5.49 20.9 79.594 79.594 0 0 1 4.612-7.666c2.2-3.059 9.9-18.247 11.209-23.962s.877-14.508 1.544-15.169 3.735-.662 5.274.877 5.058 9.45.221 21.32-7.259 21.771-6.815 24.628.216 26.379.216 26.379l1.323-.7c1.318-.647 4.612-6.372 6.592-9.009s4.4-4.406 10.773-5.283 12.743.451 13.405 2.426-3.509 2.632-7.47 3.735" transform="translate(-11.265 -98.471)" style="fill:#ffbf9d"/>
                        <path data-name="Path 72117" d="M102.441 295.866s-1.861.927-2.32 4.181a47.517 47.517 0 0 0-.467 6.035" transform="translate(-51.876 -154.017)" style="stroke-width:1.453px;stroke:#ff9a6c;stroke-linecap:round;stroke-linejoin:round;fill:none"/>
                        <path data-name="Path 72118" d="M88.472 238.21s-6.815 12.306-7.915 12.967-4.613 2.641-4.836 5.714-.439 6.815-.439 6.815" transform="translate(-39.189 -124.004)" style="stroke-width:1.453px;stroke:#ff9a6c;stroke-linecap:round;stroke-linejoin:round;fill:none"/>
                        <path data-name="Rectangle 17968" transform="translate(106.352 130.776)" style="fill:#fff" d="M0 0h32.478v3.714H0z"/>
                        <path data-name="Path 72119" d="M353.9 48.907h-7.17V.131h7.17a3.819 3.819 0 0 1 3.819 3.819v41.139a3.819 3.819 0 0 1-3.819 3.819" transform="translate(-180.495 -.068)" style="fill:#fff"/>
                        <path data-name="Path 72120" d="M338.425 276.04c-.441 3.744-1.539 5.94-1.764 7.47s-5.931 29.461-5.931 35.617c0 3.068 2.68 12.274 5.37 20.731.019.058.038.115.053.173q-14.75.05-29.835.082c-.034-.11-.067-.221-.1-.336-1.736-5.883-3.418-11.329-4.066-12.7-1.563-3.3-9.891-8.572-11.43-15.826s-3.519-10.332-5.274-15.831-3.3-5.5-.662-10.111 3.078-7.474 1.314-10.332-10.768-6.592-9.67-8.793 2.2-2.857 3.083-2.857h.877s-1.98-7.254-.877-9.9 3.735-4.4 4.612-3.073c.834 1.261 2.273 3.116 2.407 3.284-.12-.249-1.659-3.524.451-3.946 2.191-.436 2.637.216 5.935 1.755s10.773 3.083 10.773 3.083 8.793-3.485 11.65-4.4a12.144 12.144 0 0 1 6.376.221s9.454-3.74 10.993-.7 2.637 15.821 3.3 18.243 2.853 4.4 2.416 8.136" transform="translate(-143.851 -129.344)" style="fill:#ffbf9d"/>
                        <path data-name="Path 72121" d="M306.137 318.194s-3.484-14.731-5.5-19.789-3.951-10.334-6.153-12.312-8.793-5.491-9.672-6.592" transform="translate(-148.265 -145.498)" style="stroke:#263238;stroke-width:1.453px;stroke-linecap:round;stroke-linejoin:round;fill:none"/>
                        <path data-name="Path 72122" d="M328.025 291.192s-14.069-20.207-16.027-23.3-7.915-3.073-9.455-4.4l-4.836-4.181" transform="translate(-154.976 -134.989)" style="stroke:#263238;stroke-width:1.453px;stroke-linecap:round;stroke-linejoin:round;fill:none"/>
                        <path data-name="Path 72123" d="M360.029 286.439s-5.937-7.254-10.772-14.507-5.282-9.017-7.665-9.672a64.737 64.737 0 0 0-8.132-1.1" transform="translate(-173.587 -135.95)" style="stroke:#263238;stroke-width:1.453px;stroke-linecap:round;stroke-linejoin:round;fill:none"/>
                        <path data-name="Path 72124" d="M384.221 270.725s-10.111-13.625-10.989-15.609a5.441 5.441 0 0 0-2.2-2.634" transform="translate(-193.145 -131.433)" style="stroke:#263238;stroke-width:1.453px;stroke-linecap:round;stroke-linejoin:round;fill:none"/>
                        <path data-name="Path 72125" d="M361.409 346.093s4.613-2.425 3.951-4.4a26.757 26.757 0 0 0-1.756-3.958" transform="translate(-188.137 -175.814)" style="stroke:#263238;stroke-width:1.453px;stroke-linecap:round;stroke-linejoin:round;fill:none"/>
                        <path data-name="Path 72126" d="M387.076 330.74s4.181-1.317 4.4-3.735a8.365 8.365 0 0 0-.878-4.4" transform="translate(-201.498 -167.938)" style="stroke:#263238;stroke-width:1.453px;stroke-linecap:round;stroke-linejoin:round;fill:none"/>
                        <path data-name="Path 72127" d="M306.137 318.194s-3.484-14.731-5.5-19.789-3.951-10.334-6.153-12.312-8.793-5.491-9.672-6.592" transform="translate(-148.265 -145.498)" style="stroke-width:1.453px;stroke:#ff9a6c;stroke-linecap:round;stroke-linejoin:round;fill:none"/>
                        <path data-name="Path 72128" d="M328.025 291.192s-14.069-20.207-16.027-23.3-7.915-3.073-9.455-4.4l-4.836-4.181" transform="translate(-154.976 -134.989)" style="stroke-width:1.453px;stroke:#ff9a6c;stroke-linecap:round;stroke-linejoin:round;fill:none"/>
                        <path data-name="Path 72129" d="M360.029 286.439s-5.937-7.254-10.772-14.507-5.282-9.017-7.665-9.672a64.737 64.737 0 0 0-8.132-1.1" transform="translate(-173.587 -135.95)" style="stroke-width:1.453px;stroke:#ff9a6c;stroke-linecap:round;stroke-linejoin:round;fill:none"/>
                        <path data-name="Path 72130" d="M384.221 270.725s-10.111-13.625-10.989-15.609a5.441 5.441 0 0 0-2.2-2.634" transform="translate(-193.145 -131.433)" style="stroke-width:1.453px;stroke:#ff9a6c;stroke-linecap:round;stroke-linejoin:round;fill:none"/>
                        <path data-name="Path 72131" d="M361.409 346.093s4.613-2.425 3.951-4.4a26.757 26.757 0 0 0-1.756-3.958" transform="translate(-188.137 -175.814)" style="stroke-width:1.453px;stroke:#ff9a6c;stroke-linecap:round;stroke-linejoin:round;fill:none"/>
                        <path data-name="Path 72132" d="M387.076 330.74s4.181-1.317 4.4-3.735a8.365 8.365 0 0 0-.878-4.4" transform="translate(-201.498 -167.938)" style="stroke-width:1.453px;stroke:#ff9a6c;stroke-linecap:round;stroke-linejoin:round;fill:none"/>
                        <path data-name="Path 72133" d="M215.746 439.028q-11.571.05-23.44.086-14.75.05-29.835.082c-38.935.077-79.088.067-117.826-.019-11.569-.029-23.018-.062-34.265-.105L0 439.028l10.413-.043a26797.02 26797.02 0 0 1 151.952-.124q15.088.029 29.883.081 11.888.036 23.5.086" transform="translate(0 -228.427)" style="fill:#174159"/>
                    </g>
                </g>
            </g>
        </g>
    </g>
</svg>
